<?xml version="1.0" encoding="UTF-8"?>
<svg width="14px" height="14px" viewBox="0 0 14 14" version="1.1" xmlns="http://www.w3.org/2000/svg" xmlns:xlink="http://www.w3.org/1999/xlink">
    <!-- Generator: Sketch 43.1 (39012) - http://www.bohemiancoding.com/sketch -->
    <title>like</title>
    <desc>Created with Sketch.</desc>
    <defs></defs>
    <g id="Page-1" stroke="none" stroke-width="1" fill="none" fill-rule="evenodd" opacity="0.379999995">
        <g id="首页" transform="translate(-329.000000, -414.000000)">
            <g id="line1" transform="translate(0.000000, 123.000000)">
                <g id="like" transform="translate(325.000000, 287.000000)">
                    <rect id="Rectangle-5" x="0" y="0" width="22" height="22"></rect>
                    <path d="M17.3796211,9.61338947 C17.0258105,9.16717895 16.4962526,8.91130526 15.9266947,8.91130526 L12.6842737,8.91130526 C12.8612842,8.41762105 12.9784421,7.88103158 13.0201474,7.36183158 C13.0849474,6.55448421 12.9608842,5.83736842 12.6612,5.28806316 C12.2925895,4.61233684 11.6649263,4.19082105 10.8460632,4.06913684 C10.4750316,4.01404211 10.1560211,4.08528421 9.89764211,4.28101053 C9.37543158,4.67663158 9.2796,5.42955789 9.16854737,6.30128421 C9.07983158,6.99818947 8.97924211,7.78806316 8.64122105,8.35425263 C8.41570526,8.73212632 7.97665263,9.23442105 6.77298947,9.23442105 L5.51692632,9.23442105 C4.68048421,9.23442105 4,9.91465263 4,10.7508 L4,16.4836211 C4,17.3197263 4.68048421,18 5.51692632,18 L14.6677263,18 C15.0843368,18 15.4933895,17.8574947 15.8197684,17.5987789 C16.1462316,17.3399789 16.3781895,16.9741263 16.4730947,16.5686526 L17.7320632,11.1866316 C17.8616842,10.6326105 17.7332421,10.0591579 17.3796211,9.61338947 M5.01111579,16.4836211 L5.01111579,10.7508 C5.01111579,10.4722526 5.238,10.2455368 5.51692632,10.2455368 L6.58267368,10.2455368 L6.58267368,16.9889263 L5.51692632,16.9889263 C5.23797895,16.9889263 5.01111579,16.7622105 5.01111579,16.4836211 M16.7475158,10.9563158 L15.4885474,16.3383579 C15.3989895,16.7213474 15.0614316,16.9889263 14.6677263,16.9889263 L7.59381053,16.9889263 L7.59381053,10.1722316 C8.44797895,10.0091579 9.09052632,9.57416842 9.50936842,8.87250526 C9.95557895,8.12511579 10.0702947,7.22402105 10.1715579,6.42903158 C10.2173053,6.06981053 10.2604421,5.73046316 10.3290947,5.47016842 C10.4026737,5.19096842 10.4788632,5.1092 10.5081895,5.08694737 C10.5417263,5.06151579 10.6054526,5.05557895 10.6973474,5.06922105 C11.2045895,5.14456842 11.5566316,5.37458947 11.7735368,5.77231579 C12.2186316,6.58818947 12.0220421,7.96524211 11.5977684,8.90378947 C11.4961684,9.12865263 11.5150526,9.38618947 11.6484421,9.59282105 C11.7816421,9.79928421 12.0082526,9.92246316 12.2545895,9.92246316 L15.9266947,9.92246316 C16.1857684,9.92246316 16.4264842,10.0387579 16.5873895,10.2416421 C16.7480421,10.4441474 16.8064,10.7047368 16.7475158,10.9563158" id="赞-3" fill="#000000"></path>
                </g>
            </g>
        </g>
    </g>
</svg>