<?xml version="1.0" encoding="UTF-8"?>
<svg width="14px" height="14px" viewBox="0 0 14 14" version="1.1" xmlns="http://www.w3.org/2000/svg" xmlns:xlink="http://www.w3.org/1999/xlink">
    <!-- Generator: Sketch 43.1 (39012) - http://www.bohemiancoding.com/sketch -->
    <title>message</title>
    <desc>Created with Sketch.</desc>
    <defs></defs>
    <g id="Page-1" stroke="none" stroke-width="1" fill="none" fill-rule="evenodd">
        <g id="首页" transform="translate(-283.000000, -414.000000)">
            <g id="line1" transform="translate(0.000000, 123.000000)">
                <g id="message" transform="translate(279.000000, 287.000000)">
                    <rect id="Rectangle-5" x="0" y="0" width="22" height="22"></rect>
                    <path d="M13.9790724,8.9 L7.9688232,8.9 C7.72429052,8.9 7.54557126,9.01547607 7.54557126,9.26061279 C7.54557126,9.50619385 7.72429052,9.6212085 7.9688232,9.6212085 L13.9790724,9.6212085 C14.2236051,9.6212085 14.4446427,9.50619385 14.4446427,9.26061279 C14.4446427,9.01547607 14.2236051,8.9 13.9790724,8.9 M10.9951155,15.5606128 C10.4775253,15.5606128 9.99408648,15.5147266 9.51371667,15.4121191 L7.35510447,16.6848511 L7.35510447,14.5636426 C5.7559746,13.5998779 4.70976277,11.9573389 4.70976277,10.1515234 C4.70976277,7.20832764 7.54785597,4.7212085 10.9739563,4.7212085 C14.3999374,4.7212085 17.2804683,7.20832764 17.2804683,10.1515234 C17.2804683,13.0952661 14.4210965,15.5606128 10.9951155,15.5606128 M10.9951155,4 C7.07986454,4 3.99822755,6.72015625 4.00000076,10.1536597 C4.00102377,12.1163086 4.99502817,13.8274634 6.61441357,14.9666724 L6.63557276,18 L9.64068884,16.1757617 C10.070488,16.24677 10.5629293,16.2818213 11.0162747,16.2818213 C14.9314405,16.2818213 18,13.5855737 18,10.1515234 C18,6.71802002 14.9102813,4 10.9951155,4 M13.1960461,11.5727319 L8.85766252,11.5727319 C8.61304458,11.5727319 8.41325138,11.6877466 8.41325138,11.9333276 C8.41325138,12.1789258 8.61304458,12.2939404 8.85766252,12.2939404 L13.1960461,12.2939404 C13.4405788,12.2939404 13.6536881,12.1762939 13.6536881,11.9306958 C13.6536881,11.6851318 13.4405788,11.5727319 13.1960461,11.5727319" id="2留言咨询eps" fill="#000000" opacity="0.379999995"></path>
                </g>
            </g>
        </g>
    </g>
</svg>